<?xml version="1.0" encoding="UTF-8"?>
<!-- Dysprosium [Dy] Token Icon -->
<svg width="32" height="32" viewBox="0 0 32 32" fill="none" xmlns="http://www.w3.org/2000/svg">
  <!-- Background -->
  <circle cx="16" cy="16" r="15" fill="#EDB41F" stroke="#B88D0A" stroke-width="2"/>

  <!-- Top arcs -->
  <path d="M7,19a6,6 0 1,1 6,6" stroke="white" stroke-width="1.25" fill="none"/>
  <path d="M19,19a6,6 0 1,0 -6,-6" stroke="white" stroke-width="1.25" fill="none"/>

  <!-- Bottom left arcs -->
  <path d="M7,13a6,6 0 1,0 6,-6" stroke="white" stroke-width="1.25" fill="none"/>
  <path d="M13,13a6,6 0 1,1 -6,6" stroke="white" stroke-width="1.25" fill="none"/>

  <!-- Horizontally mirrored versions -->

  <!-- Top arcs mirrored -->
  <path d="M25,19a6,6 0 1,0 -6,6" stroke="white" stroke-width="1.25" fill="none"/>
  <path d="M13,19a6,6 0 1,1 6,-6" stroke="white" stroke-width="1.25" fill="none"/>

  <!-- Bottom right arcs mirrored -->
  <path d="M25,13a6,6 0 1,1 -6,-6" stroke="white" stroke-width="1.25" fill="none"/>
  <path d="M19,13a6,6 0 1,1 -6,6" stroke="white" stroke-width="1.25" fill="none"/>
</svg>
